# xmcd
#
# Track frame offsets:
#	182
#	22087
#	43987
#	66037
#
# Disc length: 1262 seconds
#
# Revision: 1
# Processed by: cddbd v1.5.2PL0 Copyright (c) Steve Scherf et al.
# Submitted via: audiograbber 1.83.01
#
DISCID=3404ec04
DTITLE=Aquel Negrito - Aquel Negrito [CDs Remixes)
DYEAR=1993
DGENRE=Dance
TTITLE0=Aquel Negrito (Vocal Version)
TTITLE1=Aquel Negrito (Instrumental Version)
TTITLE2=Aquel Negrito (Comic's Version)
TTITLE3=Aquel Negrito (Real Not Version)
EXTD=
EXTT0=
EXTT1=
EXTT2=
EXTT3=
PLAYORDER=
